<svg width="60" height="33" viewBox="0 0 60 33" fill="none" xmlns="http://www.w3.org/2000/svg">
<path fill-rule="evenodd" clip-rule="evenodd" d="M6.17486 24.6123L18.1125 14.1643C17.9471 13.7124 17.8569 13.2244 17.8569 12.7153C17.8569 10.3876 19.7439 8.50078 22.0714 8.50078C24.3546 8.50078 26.2136 10.3162 26.284 12.5823L35.7191 15.8855C36.4921 14.9781 37.643 14.4025 38.9284 14.4025C39.6537 14.4025 40.3361 14.5857 40.9319 14.9083L51.8091 5.61488C51.6549 5.17669 51.5706 4.70552 51.5706 4.21455C51.5706 1.88698 53.4576 0 55.7852 0C58.113 0 60 1.88698 60 4.21455C60 6.54238 58.113 8.42936 55.7852 8.42936C55.06 8.42936 54.3775 8.24617 53.7818 7.92355L42.9046 17.217C43.0588 17.6552 43.1431 18.1263 43.1431 18.6173C43.1431 20.9449 41.2561 22.8319 38.9283 22.8319C36.6452 22.8319 34.7864 21.0164 34.716 18.7505L25.2808 15.4472C24.5077 16.3547 23.357 16.9303 22.0714 16.9303C21.3637 16.9303 20.6969 16.7556 20.1113 16.4473L8.1736 26.8953C8.33903 27.3471 8.42923 27.8351 8.42923 28.3442C8.42923 30.6721 6.54226 32.5588 4.21443 32.5588C1.88698 32.5585 0 30.6718 0 28.344C0 26.0162 1.88698 24.1294 4.21455 24.1294C4.92233 24.1294 5.58925 24.304 6.17486 24.6123Z" fill="#FF9A23"/>
</svg>
