<svg width="253" height="38" viewBox="0 0 253 38" fill="none" xmlns="http://www.w3.org/2000/svg">
<g clip-path="url(#clip0_23279_6776)">
<path fill-rule="evenodd" clip-rule="evenodd" d="M26.0103 35.2784C35.7522 35.2784 43.6495 27.3811 43.6495 17.6392C43.6495 7.89734 35.7522 0 26.0103 0C16.2684 0 8.37109 7.89734 8.37109 17.6392C8.37109 27.3811 16.2684 35.2784 26.0103 35.2784ZM26.3094 22.1232C28.621 22.1232 30.495 20.2493 30.495 17.9376C30.495 15.626 28.621 13.7521 26.3094 13.7521C23.9978 13.7521 22.1238 15.626 22.1238 17.9376C22.1238 20.2493 23.9978 22.1232 26.3094 22.1232Z" fill="#1F9EAA"/>
<mask id="mask0_23279_6776" style="mask-type:luminance" maskUnits="userSpaceOnUse" x="8" y="0" width="36" height="36">
<path fill-rule="evenodd" clip-rule="evenodd" d="M26.0103 35.2784C35.7522 35.2784 43.6495 27.3811 43.6495 17.6392C43.6495 7.89734 35.7522 0 26.0103 0C16.2684 0 8.37109 7.89734 8.37109 17.6392C8.37109 27.3811 16.2684 35.2784 26.0103 35.2784ZM26.3094 22.1232C28.621 22.1232 30.495 20.2493 30.495 17.9376C30.495 15.626 28.621 13.7521 26.3094 13.7521C23.9978 13.7521 22.1238 15.626 22.1238 17.9376C22.1238 20.2493 23.9978 22.1232 26.3094 22.1232Z" fill="white"/>
</mask>
<g mask="url(#mask0_23279_6776)">
<path fill-rule="evenodd" clip-rule="evenodd" d="M26.0103 0H8.37109V35.2784H26.0103V22.1127C23.8383 21.9593 22.1238 20.1487 22.1238 17.9376C22.1238 15.7266 23.8383 13.916 26.0103 13.7626V0Z" fill="url(#paint0_linear_23279_6776)"/>
</g>
<ellipse cx="3.58763" cy="4.18627" rx="3.58763" ry="3.58763" fill="#1F9EAA"/>
<path d="M67.4164 29.4938C65.5551 29.4938 63.8622 29.0595 62.3377 28.1909C60.8309 27.3045 59.6432 26.0991 58.7746 24.5746C57.906 23.0501 57.4717 21.3749 57.4717 19.5491C57.4717 17.7232 57.906 16.048 58.7746 14.5235C59.6432 12.999 60.8309 11.8025 62.3377 10.9339C63.8622 10.0475 65.5551 9.60437 67.4164 9.60437C69.2777 9.60437 70.9618 10.0475 72.4685 10.9339C73.993 11.8025 75.1896 12.999 76.0582 14.5235C76.9268 16.048 77.3611 17.7232 77.3611 19.5491C77.3611 21.3749 76.9268 23.0501 76.0582 24.5746C75.1896 26.0991 73.993 27.3045 72.4685 28.1909C70.9618 29.0595 69.2777 29.4938 67.4164 29.4938ZM67.4164 26.0903C68.5864 26.0903 69.6588 25.8155 70.6338 25.266C71.6088 24.7164 72.371 23.9453 72.9206 22.9526C73.4878 21.9599 73.7714 20.8254 73.7714 19.5491C73.7714 18.2728 73.4878 17.1382 72.9206 16.1455C72.371 15.1528 71.6088 14.3817 70.6338 13.8322C69.6588 13.2827 68.5864 13.0079 67.4164 13.0079C66.2464 13.0079 65.174 13.2827 64.199 13.8322C63.2417 14.3817 62.4795 15.1528 61.9122 16.1455C61.3627 17.1382 61.0879 18.2728 61.0879 19.5491C61.0879 20.8254 61.3627 21.9599 61.9122 22.9526C62.4795 23.9453 63.2417 24.7164 64.199 25.266C65.174 25.8155 66.2464 26.0903 67.4164 26.0903ZM80.152 15.5074H83.4226V17.2092H83.6354C84.0431 16.5533 84.6192 16.0392 85.3637 15.6669C86.1082 15.2769 86.9148 15.0819 87.7834 15.0819C89.4143 15.0819 90.6552 15.5783 91.506 16.571C92.3569 17.5637 92.7824 18.9198 92.7824 20.6393V29.0684H89.2991V21.0647C89.2991 20.1961 89.0775 19.5225 88.6343 19.0439C88.1911 18.5652 87.5707 18.3259 86.773 18.3259C85.8335 18.3259 85.0712 18.6893 84.4862 19.4161C83.919 20.1429 83.6354 21.0559 83.6354 22.1549V29.0684H80.152V15.5074ZM102.425 29.4938C101.078 29.4938 99.8633 29.1836 98.782 28.5631C97.7006 27.9427 96.8498 27.0918 96.2293 26.0105C95.6266 24.9114 95.3253 23.6794 95.3253 22.3145C95.3253 21.0204 95.6266 19.8238 96.2293 18.7248C96.832 17.608 97.6652 16.7217 98.7288 16.0658C99.7924 15.4099 100.98 15.0819 102.292 15.0819C103.692 15.0819 104.898 15.3833 105.908 15.986C106.919 16.5887 107.681 17.413 108.195 18.4589C108.727 19.5048 108.993 20.6659 108.993 21.9422C108.993 22.3499 108.966 22.7399 108.913 23.1122H98.7288C98.9061 24.1935 99.3315 25.0178 100.005 25.585C100.696 26.1346 101.521 26.4093 102.478 26.4093C103.276 26.4093 103.958 26.2409 104.525 25.9041C105.11 25.5496 105.571 25.0798 105.908 24.4949L108.727 25.8775C107.344 28.2884 105.243 29.4938 102.425 29.4938ZM105.642 20.6393C105.607 20.2138 105.447 19.7973 105.164 19.3895C104.898 18.9641 104.517 18.6184 104.02 18.3525C103.542 18.0689 102.974 17.9271 102.318 17.9271C101.485 17.9271 100.767 18.1753 100.165 18.6716C99.5797 19.1502 99.1542 19.8061 98.8883 20.6393H105.642Z" fill="white"/>
<path d="M120.76 10.0298H122.994V29.0684H120.76V10.0298ZM126.8 15.5074H128.954V17.5016H129.06C129.45 16.8103 130.035 16.2342 130.815 15.7733C131.595 15.3124 132.419 15.0819 133.288 15.0819C134.28 15.0819 135.14 15.3212 135.867 15.7999C136.611 16.2785 137.143 16.9167 137.462 17.7144C137.941 16.9167 138.57 16.2785 139.35 15.7999C140.148 15.3212 141.07 15.0819 142.116 15.0819C143.676 15.0819 144.846 15.5606 145.626 16.5178C146.423 17.4573 146.822 18.7425 146.822 20.3734V29.0684H144.589V20.7191C144.589 19.4605 144.332 18.5475 143.817 17.9803C143.303 17.413 142.541 17.1294 141.531 17.1294C140.857 17.1294 140.245 17.3244 139.696 17.7144C139.146 18.1044 138.712 18.6273 138.393 19.2832C138.092 19.9391 137.941 20.6481 137.941 21.4104V29.0684H135.681V20.7456C135.681 19.4693 135.424 18.5475 134.91 17.9803C134.396 17.413 133.642 17.1294 132.65 17.1294C131.976 17.1294 131.364 17.3332 130.815 17.741C130.265 18.1309 129.831 18.6627 129.512 19.3364C129.211 19.9923 129.06 20.7013 129.06 21.4636V29.0684H126.8V15.5074ZM149.96 15.5074H152.114V17.5282H152.22C152.628 16.8369 153.239 16.2608 154.055 15.7999C154.888 15.3212 155.818 15.0819 156.847 15.0819C158.052 15.0819 159.151 15.3922 160.144 16.0126C161.136 16.633 161.916 17.4928 162.484 18.5918C163.051 19.6909 163.335 20.9229 163.335 22.2879C163.335 23.6706 163.051 24.9114 162.484 26.0105C161.916 27.0918 161.136 27.9427 160.144 28.5631C159.151 29.1836 158.052 29.4938 156.847 29.4938C155.818 29.4938 154.888 29.2634 154.055 28.8025C153.239 28.3238 152.628 27.7477 152.22 27.0741H152.114L152.22 28.9354V34.8118H149.96V15.5074ZM156.581 27.4464C157.361 27.4464 158.096 27.2336 158.788 26.8082C159.479 26.3828 160.029 25.78 160.436 25.0001C160.862 24.2024 161.074 23.2983 161.074 22.2879C161.074 21.2774 160.862 20.3822 160.436 19.6023C160.029 18.8046 159.479 18.193 158.788 17.7675C158.096 17.3421 157.361 17.1294 156.581 17.1294C155.801 17.1294 155.065 17.3421 154.374 17.7675C153.682 18.193 153.133 18.7957 152.725 19.5757C152.317 20.3557 152.114 21.2597 152.114 22.2879C152.114 23.316 152.317 24.2201 152.725 25.0001C153.133 25.78 153.682 26.3828 154.374 26.8082C155.065 27.2336 155.801 27.4464 156.581 27.4464ZM165.828 15.5074H167.982V17.6878H168.088C168.354 16.9432 168.868 16.3317 169.63 15.8531C170.393 15.3567 171.19 15.1085 172.024 15.1085C172.644 15.1085 173.176 15.1972 173.619 15.3744V17.8207C173.052 17.5371 172.414 17.3953 171.704 17.3953C171.049 17.3953 170.446 17.5814 169.896 17.9537C169.347 18.3259 168.904 18.8312 168.567 19.4693C168.248 20.0898 168.088 20.7634 168.088 21.4902V29.0684H165.828V15.5074ZM181.03 29.4938C179.736 29.4938 178.575 29.1836 177.547 28.5631C176.519 27.9427 175.712 27.0918 175.127 26.0105C174.56 24.9114 174.276 23.6794 174.276 22.3145C174.276 21.0027 174.542 19.7973 175.074 18.6982C175.624 17.5991 176.395 16.7217 177.387 16.0658C178.38 15.4099 179.532 15.0819 180.844 15.0819C182.174 15.0819 183.326 15.3833 184.301 15.986C185.276 16.571 186.02 17.3864 186.535 18.4323C187.066 19.4782 187.332 20.6747 187.332 22.022C187.332 22.2879 187.306 22.5183 187.252 22.7133H176.537C176.59 23.7415 176.838 24.6101 177.281 25.3191C177.724 26.0282 178.283 26.56 178.956 26.9146C179.648 27.2691 180.366 27.4464 181.11 27.4464C182.847 27.4464 184.186 26.6309 185.125 25.0001L187.04 25.9307C186.455 27.0298 185.657 27.8984 184.647 28.5366C183.654 29.1747 182.448 29.4938 181.03 29.4938ZM184.939 20.852C184.904 20.2847 184.744 19.7175 184.46 19.1502C184.177 18.583 183.725 18.1044 183.104 17.7144C182.502 17.3244 181.739 17.1294 180.818 17.1294C179.754 17.1294 178.85 17.4751 178.105 18.1664C177.379 18.84 176.9 19.7352 176.67 20.852H184.939ZM194.84 29.4938C193.387 29.4938 192.172 29.157 191.197 28.4834C190.222 27.792 189.531 26.9146 189.123 25.851L191.144 24.9469C191.481 25.7623 191.977 26.3916 192.633 26.8348C193.307 27.278 194.042 27.4995 194.84 27.4995C195.691 27.4995 196.418 27.3311 197.021 26.9943C197.623 26.6398 197.925 26.1434 197.925 25.5053C197.925 24.938 197.685 24.486 197.207 24.1492C196.728 23.7946 195.975 23.4933 194.947 23.2451L193.298 22.8197C192.217 22.5538 191.33 22.1017 190.639 21.4636C189.948 20.8254 189.602 20.0011 189.602 18.9907C189.602 18.2107 189.832 17.5282 190.293 16.9432C190.772 16.3405 191.401 15.8796 192.181 15.5606C192.961 15.2415 193.803 15.0819 194.707 15.0819C195.895 15.0819 196.95 15.339 197.871 15.8531C198.811 16.3671 199.476 17.0851 199.866 18.0069L197.898 18.9109C197.295 17.7055 196.223 17.1028 194.681 17.1028C193.936 17.1028 193.28 17.2801 192.713 17.6346C192.163 17.9714 191.889 18.4057 191.889 18.9375C191.889 19.4339 192.084 19.8416 192.474 20.1607C192.864 20.462 193.449 20.7102 194.229 20.9052L196.196 21.4104C197.526 21.7472 198.527 22.2524 199.201 22.926C199.875 23.5819 200.211 24.3885 200.211 25.3457C200.211 26.1789 199.972 26.9146 199.493 27.5527C199.015 28.1732 198.368 28.6518 197.552 28.9886C196.737 29.3254 195.833 29.4938 194.84 29.4938ZM207.408 29.4938C205.955 29.4938 204.74 29.157 203.765 28.4834C202.79 27.792 202.099 26.9146 201.691 25.851L203.712 24.9469C204.049 25.7623 204.545 26.3916 205.201 26.8348C205.875 27.278 206.61 27.4995 207.408 27.4995C208.259 27.4995 208.986 27.3311 209.589 26.9943C210.191 26.6398 210.493 26.1434 210.493 25.5053C210.493 24.938 210.253 24.486 209.775 24.1492C209.296 23.7946 208.543 23.4933 207.515 23.2451L205.866 22.8197C204.785 22.5538 203.898 22.1017 203.207 21.4636C202.516 20.8254 202.17 20.0011 202.17 18.9907C202.17 18.2107 202.4 17.5282 202.861 16.9432C203.34 16.3405 203.969 15.8796 204.749 15.5606C205.529 15.2415 206.371 15.0819 207.275 15.0819C208.463 15.0819 209.518 15.339 210.439 15.8531C211.379 16.3671 212.044 17.0851 212.434 18.0069L210.466 18.9109C209.863 17.7055 208.791 17.1028 207.249 17.1028C206.504 17.1028 205.848 17.2801 205.281 17.6346C204.731 17.9714 204.457 18.4057 204.457 18.9375C204.457 19.4339 204.652 19.8416 205.042 20.1607C205.432 20.462 206.017 20.7102 206.797 20.9052L208.764 21.4104C210.094 21.7472 211.095 22.2524 211.769 22.926C212.443 23.5819 212.779 24.3885 212.779 25.3457C212.779 26.1789 212.54 26.9146 212.061 27.5527C211.583 28.1732 210.936 28.6518 210.12 28.9886C209.305 29.3254 208.401 29.4938 207.408 29.4938ZM216.443 13.0079C216 13.0079 215.619 12.8484 215.299 12.5293C214.98 12.2102 214.821 11.8291 214.821 11.3859C214.821 10.9427 214.98 10.5705 215.299 10.2691C215.619 9.95004 216 9.7905 216.443 9.7905C216.886 9.7905 217.267 9.95004 217.586 10.2691C217.905 10.5705 218.065 10.9427 218.065 11.3859C218.065 11.8291 217.905 12.2102 217.586 12.5293C217.285 12.8484 216.904 13.0079 216.443 13.0079ZM215.326 15.5074H217.56V29.0684H215.326V15.5074ZM227.231 29.4938C225.901 29.4938 224.704 29.1747 223.641 28.5366C222.577 27.8984 221.744 27.0298 221.141 25.9307C220.556 24.8317 220.264 23.6174 220.264 22.2879C220.264 20.9584 220.556 19.7441 221.141 18.645C221.744 17.546 222.577 16.6773 223.641 16.0392C224.704 15.401 225.901 15.0819 227.231 15.0819C228.56 15.0819 229.757 15.401 230.82 16.0392C231.884 16.6773 232.708 17.546 233.293 18.645C233.896 19.7441 234.197 20.9584 234.197 22.2879C234.197 23.6174 233.896 24.8317 233.293 25.9307C232.708 27.0298 231.884 27.8984 230.82 28.5366C229.757 29.1747 228.56 29.4938 227.231 29.4938ZM227.231 27.4464C228.064 27.4464 228.835 27.2425 229.544 26.8348C230.271 26.4093 230.847 25.8066 231.272 25.0267C231.715 24.2467 231.937 23.3337 231.937 22.2879C231.937 21.242 231.715 20.3291 231.272 19.5491C230.847 18.7691 230.271 18.1753 229.544 17.7675C228.835 17.3421 228.064 17.1294 227.231 17.1294C226.397 17.1294 225.617 17.3421 224.891 17.7675C224.164 18.1753 223.579 18.7691 223.136 19.5491C222.71 20.3291 222.497 21.242 222.497 22.2879C222.497 23.3337 222.71 24.2467 223.136 25.0267C223.579 25.8066 224.164 26.4093 224.891 26.8348C225.617 27.2425 226.397 27.4464 227.231 27.4464ZM236.562 15.5074H238.716V17.5016H238.822C239.194 16.828 239.788 16.2608 240.604 15.7999C241.419 15.3212 242.288 15.0819 243.21 15.0819C244.84 15.0819 246.081 15.5606 246.932 16.5178C247.801 17.4573 248.235 18.7425 248.235 20.3734V29.0684H245.975V20.7191C245.975 19.4605 245.674 18.5475 245.071 17.9803C244.468 17.413 243.644 17.1294 242.598 17.1294C241.871 17.1294 241.215 17.3332 240.63 17.741C240.063 18.1487 239.62 18.6893 239.301 19.363C238.982 20.0188 238.822 20.7102 238.822 21.437V29.0684H236.562V15.5074Z" fill="white"/>
</g>
<defs>
<linearGradient id="paint0_linear_23279_6776" x1="26.0103" y1="0" x2="8.37109" y2="0" gradientUnits="userSpaceOnUse">
<stop stop-color="#157078"/>
<stop offset="1" stop-color="#1F9EAA" stop-opacity="0.01"/>
</linearGradient>
<clipPath id="clip0_23279_6776">
<rect width="253" height="37.1376" fill="white"/>
</clipPath>
</defs>
</svg>
