<svg width="37" height="36" viewBox="0 0 37 36" fill="none" xmlns="http://www.w3.org/2000/svg"><path fill-rule="evenodd" clip-rule="evenodd" d="M10.5943 13.9897C13.1219 18.7711 17.2289 22.878 22.0103 25.4056C22.6154 24.9413 23.1913 24.4476 23.7931 23.9757C24.2543 23.613 24.7609 23.2461 25.3552 23.1508C25.5652 23.1162 25.7784 23.1162 25.9884 23.1476C27.8373 23.4236 29.7458 23.8501 31.4896 24.5288C33.1253 25.161 35.142 26.2273 35.7925 27.9744C35.9809 28.4821 36.0404 29.0201 35.9777 29.5548C35.7114 31.7913 34.9114 34.1338 32.8319 35.291C31.4366 36.066 29.7977 36.1191 28.2595 35.8604C26.3684 35.5453 24.474 34.7519 22.7832 33.8642C20.7102 32.7807 18.7346 31.446 16.8825 30.016C14.8453 28.4464 12.9119 26.7274 11.0912 24.9099C9.27367 23.0913 7.55359 21.1558 5.98398 19.1175C4.55509 17.2653 3.21929 15.2898 2.13572 13.2179C1.24808 11.5259 0.454611 9.63158 0.139606 7.74047C-0.11911 6.20225 -0.0660676 4.56336 0.710079 3.16802C1.86618 1.08856 4.20869 0.288597 6.44512 0.0266336C6.97987 -0.0404809 7.51895 0.019056 8.02556 0.20741C11.1572 1.37217 12.4151 7.07582 12.8524 10.0126C12.8838 10.2259 12.8838 10.4348 12.8491 10.6448C12.755 11.2391 12.388 11.7457 12.0243 12.2068C11.5523 12.8087 11.063 13.3857 10.5943 13.9897Z" fill="#1D252D"></path></svg>