<svg
                className="p-0 ml-1 h-3 w-3 sm:ml-4 sm:h-6 sm:w-6"
                viewBox="0 0 26 27"
                fill="none"
                xmlns="http://www.w3.org/2000/svg"
              >
                <path
                  d="M0 26.0282L1.8209 19.561C0.649953 17.5717 0.0334436 15.3084 0.0334436 12.9833C0.0334436 5.82429 5.85774 0 13.0168 0C20.1758 0 26 5.82429 26 12.9833C26 20.1423 20.1758 25.9666 13.0168 25.9666C10.7861 25.9666 8.60176 25.3956 6.66944 24.3114L0 26.0282Z"
                  fill="#22B85E"
                ></path>
                <path
                  d="M0 26.0282L1.8209 19.561C0.649953 17.5717 0.0334436 15.3084 0.0334436 12.9833C0.0334436 5.82429 5.85774 0 13.0168 0C20.1758 0 26 5.82429 26 12.9833C26 20.1423 20.1758 25.9666 13.0168 25.9666C10.7861 25.9666 8.60176 25.3956 6.66944 24.3114L0 26.0282ZM7.01041 21.9494L7.40782 22.192C9.09257 23.2206 11.0322 23.7642 13.0168 23.7642C18.9614 23.7642 23.7976 18.9279 23.7976 12.9833C23.7976 7.03871 18.9614 2.2024 13.0168 2.2024C7.07216 2.2024 2.23585 7.03871 2.23585 12.9833C2.23585 15.0546 2.82454 17.0661 3.93814 18.8002L4.20577 19.2169L3.15718 22.9413L7.01041 21.9494Z"
                  fill="white"
                ></path>
                <path
                  d="M9.3687 6.94052L8.52624 6.89459C8.26163 6.88015 8.00207 6.96858 7.80206 7.14232C7.39364 7.49699 6.74058 8.18267 6.54 9.07619C6.24088 10.4085 6.70314 12.0399 7.89954 13.6713C9.09593 15.3027 11.3255 17.913 15.268 19.0278C16.5385 19.387 17.5379 19.1448 18.309 18.6516C18.9197 18.2609 19.3407 17.6339 19.4924 16.9251L19.6269 16.2968C19.6697 16.0971 19.5683 15.8945 19.3828 15.809L16.5356 14.4966C16.3507 14.4115 16.1315 14.4653 16.0072 14.6264L14.8895 16.0754C14.805 16.1849 14.6605 16.2283 14.53 16.1824C13.7645 15.9134 11.2004 14.8396 9.79352 12.1295C9.73251 12.0119 9.74768 11.8692 9.83422 11.769L10.9025 10.5332C11.0116 10.407 11.0392 10.2296 10.9736 10.0762L9.74629 7.20489C9.68095 7.05202 9.53453 6.94957 9.3687 6.94052Z"
                  fill="white"
                ></path>
              </svg>